<svg width="130" height="51" viewBox="0 0 130 51" fill="none" xmlns="http://www.w3.org/2000/svg">
<path d="M3.65386 12.5894C3.65386 9.97545 4.29675 7.80444 5.58252 6.07929C6.86829 4.35413 8.54694 3.01364 10.6185 2.05781C12.69 1.10198 14.9639 0.519159 17.4402 0.309343C19.9195 0.0995268 22.375 0.227748 24.8036 0.694006C27.2353 1.16026 29.4408 1.92959 31.417 3.00198C33.3933 4.07438 34.8815 5.42653 35.8815 7.05843V14.4078C34.0719 10.8147 31.9736 8.01426 29.5896 6.00935C27.2085 4.00444 24.756 2.64063 22.2321 1.91793C19.7082 1.19523 17.3003 0.997074 15.0115 1.32345C12.7257 1.64983 10.7494 2.37253 9.08268 3.49155C7.70166 4.37744 6.76114 5.49646 6.26112 6.84861C5.7611 8.20076 5.90396 9.73067 6.68971 11.4354C7.47546 13.1373 9.05887 14.944 11.4399 16.8557C13.821 18.7673 17.1798 20.7285 21.5178 22.7364C24.1369 23.8087 26.6013 25.021 28.911 26.3732C31.2236 27.7253 33.1076 29.3601 34.56 31.2747C36.0125 33.1864 36.7387 35.5177 36.7387 38.2686C36.7387 40.1336 36.3696 41.8034 35.6315 43.275C34.8934 44.7437 33.8814 45.991 32.5957 47.0167C30.5479 48.5554 28.0925 49.5345 25.2322 49.9542C22.375 50.3738 19.3837 50.2805 16.2616 49.6744C13.1424 49.0683 10.1512 47.9609 7.29093 46.3523C4.43366 44.7408 2.00497 42.6747 0.00488281 40.1569V30.4296C1.76687 34.7702 3.98126 38.3881 6.64804 41.2818C9.31781 44.1726 12.19 46.3174 15.2615 47.7161C18.3361 49.1149 21.3392 49.721 24.2679 49.5345C27.1996 49.348 29.786 48.3223 32.0242 46.4572C33.2147 45.4781 33.9648 44.3241 34.2743 42.9953C34.5838 41.6635 34.2981 40.1802 33.4171 38.5483C32.5361 36.9164 30.914 35.2029 28.5538 33.4078C26.1966 31.6098 22.9464 29.7769 18.8034 27.9118C16.2274 26.7928 13.7853 25.5572 11.4756 24.2051C9.16602 22.8529 7.28498 21.2443 5.83253 19.3793C4.38008 17.5114 3.65386 15.2471 3.65386 12.5894Z" fill="white"/>
<path d="M58.5372 23.226C57.0565 23.226 55.8168 23.5407 54.8168 24.1702C53.8167 24.7996 53.031 25.5107 52.4595 26.3033C51.8881 27.096 51.4833 27.7254 51.2452 28.1917C49.9118 31.1801 48.876 34.4337 48.1379 37.9539C47.3998 41.4742 47.0307 45.5219 47.0307 50.0941H41.5959V0.694092H47.0307V41.1361C47.6022 36.7999 48.5546 32.965 49.888 29.6312C51.2214 26.2946 52.8881 23.191 54.8882 20.3236C56.8913 17.4532 59.1563 14.5478 61.6802 11.6104C61.6802 11.6104 61.9183 11.3189 62.3945 10.7361C62.8707 10.1533 63.4184 9.41895 64.0375 8.53306C64.6565 7.64425 65.2042 6.69716 65.6804 5.69471C66.1566 4.69225 66.4066 3.73643 66.4304 2.82722C66.4542 1.91802 66.0852 1.20698 65.3232 0.694092H77.1869C75.9487 0.927221 74.6987 1.39348 73.4367 2.09287C72.1747 2.79225 71.0169 3.53827 69.9663 4.3309C68.9186 5.12354 68.0734 5.79962 67.4305 6.35913C66.7876 6.91864 66.4423 7.19839 66.3947 7.19839C63.6327 10.3267 61.0939 13.2889 58.7813 16.0864C56.4716 18.884 54.4596 21.8709 52.7453 25.0444C53.3643 24.4383 54.1501 23.8904 55.1025 23.4009C56.0549 22.9113 57.1993 22.6665 58.5372 22.6665C61.0611 22.6665 63.1565 23.1211 64.8232 24.0303C66.4899 24.9395 67.8829 26.1401 69.002 27.6322C70.124 29.1242 71.1033 30.7823 71.9366 32.6036C72.77 34.422 73.5915 36.2404 74.401 38.0588C75.3534 40.1104 76.294 42.0133 77.2226 43.7647C78.1512 45.5131 79.2108 46.9119 80.4013 47.961C81.5948 49.0101 83.0264 49.5346 84.6932 49.5346V50.0941C80.9742 50.0941 78.0321 49.6046 75.8654 48.6254C73.6986 47.6463 72.0557 46.3641 70.9366 44.7788C69.8175 43.1906 69.0288 41.4392 68.5734 39.5276C68.121 37.6159 67.7519 35.7042 67.4662 33.7926C67.1805 31.878 66.7876 30.1266 66.2876 28.5414C65.7875 26.9561 64.9542 25.6739 63.7874 24.6947C62.6207 23.7156 60.8706 23.226 58.5372 23.226Z" fill="white"/>
<path d="M124.927 4.61053L112.635 27.8418V50.094H106.992V29.3105L89.5505 0.624023H95.9854L106.992 18.744L112.278 27.3523L124.07 4.96022C124.594 3.98108 124.749 3.18844 124.534 2.58231C124.32 1.97617 123.951 1.50991 123.427 1.18353C122.903 0.857152 122.403 0.670649 121.927 0.624023H130.005C129.386 0.670649 128.716 0.938748 127.999 1.42832C127.284 1.91789 126.642 2.46574 126.07 3.07188C125.499 3.67801 125.118 4.1909 124.927 4.61053Z" fill="white"/>
</svg>
